<svg width="36" height="33" viewBox="0 0 36 33" fill="none" xmlns="http://www.w3.org/2000/svg">
    <g clip-path="url(#clip0_325_19)">
        <g filter="url(#filter0_d_325_19)">
            <ellipse cx="17.7499" cy="16.2139" rx="16" ry="14" transform="rotate(12.2092 17.7499 16.2139)"
                fill="#FF80BF" />
            <path
                d="M32.8993 19.4918C31.3353 26.7198 23.325 31.2326 14.8948 29.4085C6.46472 27.5844 1.03649 20.1638 2.60045 12.9359C4.1644 5.70792 12.1747 1.19512 20.6049 3.0192C29.035 4.84328 34.4632 12.2639 32.8993 19.4918Z"
                stroke="#45293C" />
        </g>
        <path d="M8.4557 11.3855L27.1845 13.8761L26.8917 16.1068L8.16282 13.6163L8.4557 11.3855Z" fill="#45293C" />
        <path
            d="M16.6079 20.9207C12.6152 20.6675 11.9019 16.1132 12.0443 13.8677L23.6543 15.1678C23.3694 19.6587 18.4564 21.038 16.6079 20.9207Z"
            fill="#45293C" />
    </g>
    <defs>
        <filter id="filter0_d_325_19" x="1.83105" y="2.11505" width="32.8376" height="28.1976"
            filterUnits="userSpaceOnUse" color-interpolation-filters="sRGB">
            <feFlood flood-opacity="0" result="BackgroundImageFix" />
            <feColorMatrix in="SourceAlpha" type="matrix" values="0 0 0 0 0 0 0 0 0 0 0 0 0 0 0 0 0 0 127 0"
                result="hardAlpha" />
            <feOffset dx="1" />
            <feComposite in2="hardAlpha" operator="out" />
            <feColorMatrix type="matrix" values="0 0 0 0 0.396078 0 0 0 0 0.180392 0 0 0 0 0.337255 0 0 0 1 0" />
            <feBlend mode="normal" in2="BackgroundImageFix" result="effect1_dropShadow_325_19" />
            <feBlend mode="normal" in="SourceGraphic" in2="effect1_dropShadow_325_19" result="shape" />
        </filter>
        <clipPath id="clip0_325_19">
            <rect width="34" height="29" fill="white" transform="translate(1.9519 0.952881) rotate(3.62955)" />
        </clipPath>
    </defs>
</svg>