<svg width="80" height="64" viewBox="0 0 80 64" fill="none" xmlns="http://www.w3.org/2000/svg">
<path d="M31.0167 44.1154C31.0167 47.5986 29.2 53.2984 24.9 53.2984C20.6 53.2984 18.7833 47.5986 18.7833 44.1154C18.7833 40.6321 20.6 34.9323 24.9 34.9323C29.2 34.9323 31.0167 40.6321 31.0167 44.1154ZM80 35.6989C80 41.0154 79.4667 46.6486 77.0833 51.5318C70.7667 64.2981 53.4 63.9981 40.9667 63.9981C28.3333 63.9981 9.93333 64.4481 3.36667 51.5318C0.933333 46.6986 0 41.0154 0 35.6989C0 28.7158 2.31667 22.116 6.91667 16.7662C6.05 14.1329 5.63333 11.3663 5.63333 8.63308C5.63333 5.04985 6.45 3.2499 8.06667 0C15.6167 0 20.45 1.49996 26.2 5.99982C31.0333 4.84985 36 4.3332 40.9833 4.3332C45.4833 4.3332 50.0167 4.81652 54.3833 5.86649C60.05 1.41662 64.8833 0 72.35 0C73.9833 3.2499 74.7833 5.04985 74.7833 8.63308C74.7833 11.3663 74.35 14.0829 73.5 16.6662C78.0833 22.066 80 28.7158 80 35.6989ZM69.2833 44.1154C69.2833 36.7989 64.8333 30.3491 57.0333 30.3491C53.8833 30.3491 50.8667 30.9157 47.7 31.3491C45.2167 31.7324 42.7333 31.8824 40.1833 31.8824C37.65 31.8824 35.1667 31.7324 32.6667 31.3491C29.55 30.9157 26.5 30.3491 23.3333 30.3491C15.5333 30.3491 11.0833 36.7989 11.0833 44.1154C11.0833 58.7483 24.4833 60.9982 36.15 60.9982H44.1833C55.9 60.9982 69.2833 58.7649 69.2833 44.1154ZM55.5167 34.9323C51.2167 34.9323 49.4 40.6321 49.4 44.1154C49.4 47.5986 51.2167 53.2984 55.5167 53.2984C59.8167 53.2984 61.6333 47.5986 61.6333 44.1154C61.6333 40.6321 59.8167 34.9323 55.5167 34.9323Z" fill="#F97583"/>
</svg>
