<svg width="338" height="338" viewBox="0 0 338 338" fill="none" xmlns="http://www.w3.org/2000/svg">
<path fill-rule="evenodd" clip-rule="evenodd" d="M23.5 113.122C-7.37304 143.996 -7.37304 194.052 23.5 224.926L112.943 314.369C143.817 345.242 193.873 345.242 224.747 314.369L314.19 224.926C345.063 194.052 345.063 143.996 314.19 113.122L224.747 23.6792C193.873 -7.19384 143.817 -7.19384 112.943 23.6792L23.5 113.122ZM207.976 208.155C229.588 186.544 229.588 151.504 207.976 129.893C186.365 108.281 151.325 108.281 129.714 129.893C108.102 151.504 108.102 186.544 129.714 208.155C151.325 229.767 186.365 229.767 207.976 208.155Z" fill="#2962FF"/>
</svg>
