<svg width="64" height="64" viewBox="0 0 64 64" fill="none" xmlns="http://www.w3.org/2000/svg">
<path d="M14.3257 64H1.05714V21.2705H14.3257V64ZM7.68429 15.4418C3.44143 15.4418 0 11.9274 0 7.68446C3.03686e-08 5.64641 0.809592 3.69184 2.25068 2.25073C3.69176 0.80961 5.64629 0 7.68429 0C9.72229 0 11.6768 0.80961 13.1179 2.25073C14.559 3.69184 15.3686 5.64641 15.3686 7.68446C15.3686 11.9274 11.9257 15.4418 7.68429 15.4418ZM63.9857 64H50.7457V43.1995C50.7457 38.2423 50.6457 31.885 43.8471 31.885C36.9486 31.885 35.8914 37.2708 35.8914 42.8424V64H22.6371V21.2705H35.3629V27.0992H35.5486C37.32 23.742 41.6471 20.199 48.1029 20.199C61.5314 20.199 64 29.0421 64 40.528V64H63.9857Z" fill="#F97583"/>
</svg>
